# File created by Blade
# Date/Time:  Wed Jan 21 14:58:19 2015
#---------------------------------------------------------
:version 1.10
:name HOM
:units
  mass 1.0
  length 1.000000
  angle deg
:documentation
     Acclaim Skeleton File
:root
   axis xyz
   order TX TY TZ RX RY RZ
   position 0.000000 0.000000 0.000000
   orientation 0 0 0
:bonedata
   begin
      id 1
      name Spine_dum
      direction 0.000000 1.000000 0.000000
      length 7.067664
      axis 0.0 0.0 0.0 xyz
   end
   begin
      id 2
      name LeftUpLeg_dum
      direction 1.000000 0.000000 0.000000
      length 4.013002
      axis 0.0 0.0 0.0 xyz
   end
   begin
      id 3
      name RightUpLeg_dum
      direction -1.000000 0.000000 0.000000
      length 4.013002
      axis 0.0 0.0 0.0 xyz
   end
   begin
      id 4
      name Spine
      direction 0.000000 1.000000 0.000000
      length 0.000000
      axis 0.0 0.0 0.0 xyz
      dof rx ry rz
   end
   begin
      id 5
      name Spine_dum1
      direction 0.000000 1.000000 0.000000
      length 15.039886
      axis 0.0 0.0 0.0 xyz
   end
   begin
      id 6
      name Spine_dum2
      direction 0.000000 1.000000 0.000000
      length 10.530368
      axis 0.0 0.0 0.0 xyz
   end
   begin
      id 7
      name Spine_dum3
      direction 0.000000 1.000000 0.000000
      length 10.530368
      axis 0.0 0.0 0.0 xyz
   end
   begin
      id 8
      name Head
      direction 0.000000 1.000000 0.000000
      length 4.527550
      axis 0.0 0.0 0.0 xyz
      dof rx ry rz
   end
   begin
      id 9
      name LeftShoulder
      direction 1.000000 0.000000 0.000000
      length 7.028855
      axis 0.0 0.0 -90.0 xyz
      dof rx ry rz
   end
   begin
      id 10
      name LeftArm
      direction 1.000000 0.000000 0.000000
      length 10.797705
      axis 0.0 0.0 -90.0 xyz
      dof rx ry rz
   end
   begin
      id 11
      name LeftForeArm
      direction 1.000000 0.000000 0.000000
      length 7.907442
      axis 0.0 0.0 -90.0 xyz
      dof ry rz rx
   end
   begin
      id 12
      name LeftHand
      direction 0.000000 0.000000 0.000000
      length 0.000000
      axis 0.0 0.0 -90.0 xyz
      dof rx ry rz
   end
   begin
      id 13
      name LeftHand_dum1
      direction 0.000000 0.000000 0.000000
      length 0.000000
      axis 0.0 0.0 -90.0 xyz
   end
   begin
      id 14
      name LeftHand_dum2
      direction 1.000000 0.000000 0.000000
      length 3.937000
      axis 0.0 0.0 -90.0 xyz
   end
   begin
      id 15
      name LeftHandThumb1
      direction 0.000000 0.000000 1.000000
      length 3.937000
      axis 0.0 0.0 -90.0 xyz
      dof rx rz ry
   end
   begin
      id 16
      name RightShoulder
      direction -1.000000 0.000000 0.000000
      length 7.028855
      axis 0.0 0.0 90.0 xyz
      dof rx ry rz
   end
   begin
      id 17
      name RightArm
      direction -1.000000 0.000000 0.000000
      length 10.797705
      axis 0.0 0.0 90.0 xyz
      dof rx ry rz
   end
   begin
      id 18
      name RightForeArm
      direction -1.000000 0.000000 0.000000
      length 7.907442
      axis 0.0 0.0 90.0 xyz
      dof ry rz rx
   end
   begin
      id 19
      name RightHand
      direction 0.000000 0.000000 0.000000
      length 0.000000
      axis 0.0 0.0 90.0 xyz
      dof rx ry rz
   end
   begin
      id 20
      name RightHand_dum1
      direction 0.000000 0.000000 0.000000
      length 0.000000
      axis 0.0 0.0 90.0 xyz
   end
   begin
      id 21
      name RightHand_dum2
      direction -1.000000 0.000000 0.000000
      length 3.937000
      axis 0.0 0.0 90.0 xyz
   end
   begin
      id 22
      name RightHandThumb1
      direction 0.000000 0.000000 1.000000
      length 3.937000
      axis 0.0 0.0 90.0 xyz
      dof rx rz ry
   end
   begin
      id 23
      name LeftUpLeg
      direction 0.000000 -1.000000 0.000000
      length 16.899758
      axis 0.0 0.0 0.0 xyz
      dof rx ry rz
   end
   begin
      id 24
      name LeftLeg
      direction 0.000000 -1.000000 0.000000
      length 17.389183
      axis 0.0 0.0 0.0 xyz
      dof rx ry rz
   end
   begin
      id 25
      name LeftFoot
      direction 0.000000 -0.258819 0.965926
      length 4.924528
      axis 15.0 0.0 0.0 xyz
      dof rx ry rz
   end
   begin
      id 26
      name LeftToeBase
      direction 0.000000 0.000000 1.000000
      length 2.952750
      axis 0.0 0.0 0.0 xyz
      dof rx ry rz
   end
   begin
      id 27
      name RightUpLeg
      direction 0.000000 -1.000000 0.000000
      length 16.899758
      axis 0.0 0.0 0.0 xyz
      dof rx ry rz
   end
   begin
      id 28
      name RightLeg
      direction 0.000000 -1.000000 0.000000
      length 17.389183
      axis 0.0 0.0 0.0 xyz
      dof rx ry rz
   end
   begin
      id 29
      name RightFoot
      direction 0.000000 -0.258819 0.965926
      length 4.924528
      axis 15.0 0.0 0.0 xyz
      dof rx ry rz
   end
   begin
      id 30
      name RightToeBase
      direction 0.000000 0.000000 1.000000
      length 2.952750
      axis 0.0 0.0 0.0 xyz
      dof rx ry rz
   end
:hierarchy
   begin
      root Spine_dum LeftUpLeg_dum RightUpLeg_dum
      Spine_dum Spine
      LeftUpLeg_dum LeftUpLeg
      RightUpLeg_dum RightUpLeg
      Spine Spine_dum1 Spine_dum2 Spine_dum3
      Spine_dum1 Head
      Spine_dum2 LeftShoulder
      Spine_dum3 RightShoulder
      LeftShoulder LeftArm
      LeftArm LeftForeArm
      LeftForeArm LeftHand
      LeftHand LeftHand_dum1 LeftHand_dum2
      LeftHand_dum1 LeftHandThumb1
      RightShoulder RightArm
      RightArm RightForeArm
      RightForeArm RightHand
      RightHand RightHand_dum1 RightHand_dum2
      RightHand_dum1 RightHandThumb1
      LeftUpLeg LeftLeg
      LeftLeg LeftFoot
      LeftFoot LeftToeBase
      RightUpLeg RightLeg
      RightLeg RightFoot
      RightFoot RightToeBase
   end

# File created by Blade
# Date/Time:  Wed Jan 21 14:58:10 2015
# Frame Rate: 120.000 fps
#------------------------------------------------------
:FULLY-SPECIFIED
:DEGREES
149
root 17.399712 35.171537 -23.486452 -169.229263 -40.324874 -184.478353
Spine -25.476548 29.764129 -15.057845
Head 16.702104 14.623781 8.206645
LeftShoulder -15.582833 -31.604120 25.662531
LeftArm -4.175696 1.595754 -3.516625
LeftForeArm 11.345020 -0.000000 -3.467039
LeftHand -5.977009 -0.000000 -9.355009
LeftHandThumb1 -26.253704 0.000000 33.147579
RightShoulder -8.070089 -0.581507 -12.595589
RightArm 10.741175 32.243395 12.154501
RightForeArm -35.504834 -0.000000 4.966567
RightHand -5.813168 0.000000 10.497964
RightHandThumb1 -24.326973 -0.000000 -32.862282
LeftUpLeg -8.227064 -20.597598 5.576677
LeftLeg -4.438996 -0.000000 0.000000
LeftFoot -15.013624 17.162014 -11.667017
LeftToeBase 28.602585 -0.000000 -0.000000
RightUpLeg 7.673937 -27.963290 -2.872812
RightLeg -4.745700 -0.000000 0.000000
RightFoot -30.273974 -34.346988 25.857806
RightToeBase 20.114626 -0.000000 -0.000000
150
root 17.392140 35.168353 -23.484261 -169.151231 -40.765688 -184.638430
Spine -25.506625 29.991895 -15.215311
Head 16.706706 14.634111 8.101198
LeftShoulder -15.653886 -31.526765 25.632504
LeftArm -4.268278 1.479246 -3.524077
LeftForeArm 11.328444 -0.000000 -3.502315
LeftHand -5.979501 0.000000 -9.349761
LeftHandThumb1 -26.253704 0.000000 33.147579
RightShoulder -7.925908 -0.455514 -12.652083
RightArm 10.795149 32.072293 12.082852
RightForeArm -35.480122 -0.000000 4.841304
RightHand -5.713416 -0.000000 10.339756
RightHandThumb1 -24.326973 -0.000000 -32.862282
LeftUpLeg -8.311927 -20.813830 5.505355
LeftLeg -4.389507 -0.000000 0.000000
LeftFoot -14.930029 16.957534 -11.687457
LeftToeBase 28.621675 -0.000000 -0.000000
RightUpLeg 7.783560 -28.100033 -2.944811
RightLeg -4.738529 -0.000000 0.000000
RightFoot -30.419652 -34.651897 25.808555
RightToeBase 20.387018 -0.000000 -0.000000
151
root 17.383335 35.165255 -23.482016 -169.075406 -41.241977 -184.793815
Spine -25.548815 30.194590 -15.368850
Head 16.746226 14.640501 8.011319
LeftShoulder -15.675634 -31.463794 25.580491
LeftArm -4.398107 1.434654 -3.518874
LeftForeArm 11.348319 -0.000000 -3.501385
LeftHand -6.008900 -0.000000 -9.337539
LeftHandThumb1 -26.253704 0.000000 33.147579
RightShoulder -7.821819 -0.398352 -12.719260
RightArm 10.843124 31.946966 12.074053
RightForeArm -35.449169 -0.000000 4.916164
RightHand -5.718639 -0.000000 10.456659
RightHandThumb1 -24.326973 -0.000000 -32.862282
LeftUpLeg -8.407237 -21.070531 5.446858
LeftLeg -4.330054 -0.000000 0.000000
LeftFoot -14.844783 16.762563 -11.674757
LeftToeBase 28.704781 -0.000000 -0.000000
RightUpLeg 7.905882 -28.250437 -3.005357
RightLeg -4.745425 -0.000000 0.000000
RightFoot -30.600671 -34.913352 25.946707
RightToeBase 20.423760 -0.000000 -0.000000
152
root 17.376391 35.162532 -23.476375 -168.994533 -41.707292 -184.935975
Spine -25.577786 30.386618 -15.478451
Head 16.762979 14.676763 7.901270
LeftShoulder -15.740689 -31.348096 25.518109
LeftArm -4.498238 1.418623 -3.535510
LeftForeArm 11.382744 -0.000000 -3.523993
LeftHand -6.069627 0.000000 -9.361638
LeftHandThumb1 -26.253704 0.000000 33.147579
RightShoulder -7.677211 -0.287763 -12.800043
RightArm 10.880311 31.758872 12.023243
RightForeArm -35.436660 0.000000 4.949682
RightHand -5.693053 -0.000000 10.377383
RightHandThumb1 -24.326973 -0.000000 -32.862282
LeftUpLeg -8.529757 -21.311509 5.402765
LeftLeg -4.250293 -0.000000 0.000000
LeftFoot -14.773870 16.556909 -11.692076
LeftToeBase 28.717782 -0.000000 -0.000000
RightUpLeg 7.998105 -28.370958 -3.040598
RightLeg -4.745365 -0.000000 0.000000
RightFoot -30.810797 -35.161602 26.147092
RightToeBase 20.286236 -0.000000 -0.000000
153
root 17.370229 35.160179 -23.471499 -168.894228 -42.132413 -185.096173
Spine -25.652275 30.637917 -15.654511
Head 16.803257 14.720609 7.856340
LeftShoulder -15.742503 -31.269645 25.430488
LeftArm -4.587966 1.487536 -3.541027
LeftForeArm 11.415562 -0.000000 -3.568660
LeftHand -6.081550 -0.000000 -9.331043
LeftHandThumb1 -26.253704 0.000000 33.147579
RightShoulder -7.555097 -0.199917 -12.871817
RightArm 10.891337 31.597580 11.987393
RightForeArm -35.373355 -0.000000 5.015281
RightHand -5.738238 -0.000000 10.390685
RightHandThumb1 -24.326973 -0.000000 -32.862282
LeftUpLeg -8.640414 -21.490629 5.334348
LeftLeg -4.184258 -0.000000 0.000000
LeftFoot -14.688762 16.326996 -11.714418
LeftToeBase 28.765460 -0.000000 -0.000000
RightUpLeg 8.074207 -28.527449 -3.102676
RightLeg -4.724752 -0.000000 0.000000
RightFoot -30.922257 -35.382611 26.137268
RightToeBase 20.378126 -0.000000 -0.000000
154
root 17.362114 35.157653 -23.469834 -168.816808 -42.600202 -185.241212
Spine -25.681881 30.827346 -15.786775
Head 16.796872 14.700701 7.757998
LeftShoulder -15.812192 -31.185950 25.384211
LeftArm -4.661782 1.692421 -3.583860
LeftForeArm 11.448406 -0.000000 -3.563396
LeftHand -6.111831 -0.000000 -9.406916
LeftHandThumb1 -26.253704 0.000000 33.147579
RightShoulder -7.451563 -0.223476 -12.895364
RightArm 11.022477 31.581795 11.958536
RightForeArm -35.397569 -0.000000 4.974783
RightHand -5.732063 -0.000000 10.286121
RightHandThumb1 -24.326973 -0.000000 -32.862282
LeftUpLeg -8.745750 -21.735320 5.286791
LeftLeg -4.108134 -0.000000 0.000000
LeftFoot -14.622425 16.140916 -11.700815
LeftToeBase 28.880099 -0.000000 -0.000000
RightUpLeg 8.179364 -28.668821 -3.144986
RightLeg -4.713716 -0.000000 0.000000
RightFoot -31.126539 -35.619615 26.329570
RightToeBase 20.347380 -0.000000 -0.000000
155
root 17.356794 35.154942 -23.466157 -168.726812 -43.041583 -185.388936
Spine -25.748495 31.072294 -15.949997
Head 16.844156 14.755639 7.746943
LeftShoulder -15.808828 -30.973317 25.250319
LeftArm -4.676130 1.788864 -3.626701
LeftForeArm 11.573521 0.000000 -3.614426
LeftHand -6.140033 -0.000000 -9.431622
LeftHandThumb1 -26.253704 0.000000 33.147579
RightShoulder -7.351728 -0.169555 -12.937089
RightArm 11.064338 31.456681 11.903422
RightForeArm -35.352280 -0.000000 5.037223
RightHand -5.741880 0.000000 10.155238
RightHandThumb1 -24.326973 -0.000000 -32.862282
LeftUpLeg -8.860556 -21.951395 5.232102
LeftLeg -4.035913 -0.000000 0.000000
LeftFoot -14.559331 15.992901 -11.733516
LeftToeBase 28.905720 -0.000000 -0.000000
RightUpLeg 8.257545 -28.787614 -3.181532
RightLeg -4.694369 -0.000000 0.000000
RightFoot -31.298195 -35.891725 26.424047
RightToeBase 20.341178 -0.000000 -0.000000
156
root 17.349700 35.152707 -23.462099 -168.632802 -43.508708 -185.549036
Spine -25.798973 31.278145 -16.105602
Head 16.860630 14.770255 7.705311
LeftShoulder -15.821602 -30.823169 25.164085
LeftArm -4.735707 1.995292 -3.704185
LeftForeArm 11.692732 -0.000000 -3.590698
LeftHand -6.186265 -0.000000 -9.434080
LeftHandThumb1 -26.253704 0.000000 33.147579
RightShoulder -7.259788 -0.181403 -12.951829
RightArm 11.172921 31.404486 11.860768
RightForeArm -35.275152 -0.000000 5.046518
RightHand -5.845867 -0.000000 10.231645
RightHandThumb1 -24.326973 -0.000000 -32.862282
LeftUpLeg -8.978198 -22.192153 5.189236
LeftLeg -3.951609 -0.000000 0.000000
LeftFoot -14.469088 15.728360 -11.727148
LeftToeBase 28.887256 -0.000000 -0.000000
RightUpLeg 8.357038 -28.927917 -3.229516
RightLeg -4.690752 -0.000000 0.000000
RightFoot -31.475959 -36.138941 26.561137
RightToeBase 20.349890 -0.000000 -0.000000
157
root 17.343341 35.150339 -23.458398 -168.550111 -43.917372 -185.686739
Spine -25.858087 31.532083 -16.251674
Head 16.846547 14.778232 7.668464
LeftShoulder -15.856817 -30.627273 25.043980
LeftArm -4.740113 2.486688 -3.806748
LeftForeArm 11.699851 0.000000 -3.586973
LeftHand -6.217377 -0.000000 -9.485844
LeftHandThumb1 -26.253704 0.000000 33.147579
RightShoulder -7.162285 -0.138340 -12.988732
RightArm 11.261008 31.216725 11.814010
RightForeArm -35.240845 -0.000000 5.069809
RightHand -5.796016 -0.000000 10.128135
RightHandThumb1 -24.326973 -0.000000 -32.862282
LeftUpLeg -9.072834 -22.373331 5.129692
LeftLeg -3.892204 -0.000000 0.000000
LeftFoot -14.404792 15.588239 -11.731872
LeftToeBase 28.965336 -0.000000 -0.000000
RightUpLeg 8.430292 -29.036637 -3.266192
RightLeg -4.662406 -0.000000 0.000000
RightFoot -31.633913 -36.350909 26.654449
RightToeBase 20.333790 -0.000000 -0.000000
158
root 17.336784 35.147467 -23.454980 -168.452857 -44.361122 -185.842044
Spine -25.899593 31.734102 -16.398063
Head 16.851864 14.885658 7.692959
LeftShoulder -15.901196 -30.507423 24.973396
LeftArm -4.785186 3.039612 -3.930289
LeftForeArm 11.766067 -0.000000 -3.551696
LeftHand -6.250444 -0.000000 -9.529566
LeftHandThumb1 -26.253704 0.000000 33.147579
RightShoulder -7.037003 -0.033812 -13.048827
RightArm 11.308942 31.116302 11.814760
RightForeArm -35.270357 -0.000000 5.158913
RightHand -5.868882 0.000000 10.007305
RightHandThumb1 -24.326973 -0.000000 -32.862282
LeftUpLeg -9.188678 -22.588719 5.079712
LeftLeg -3.804738 -0.000000 0.000000
LeftFoot -14.334287 15.377078 -11.725607
LeftToeBase 28.971111 -0.000000 -0.000000
RightUpLeg 8.515062 -29.169453 -3.309613
RightLeg -4.644218 -0.000000 0.000000
RightFoot -31.816040 -36.613868 26.774778
RightToeBase 20.184115 -0.000000 -0.000000
159
root 17.330553 35.144753 -23.452032 -168.349112 -44.805551 -185.994189
Spine -25.970660 31.955296 -16.556585
Head 16.871129 14.963713 7.701647
LeftShoulder -15.861884 -30.363263 24.824871
LeftArm -4.858519 3.750131 -4.024407
LeftForeArm 11.662675 -0.000000 -3.479627
LeftHand -6.284642 -0.000000 -9.571341
LeftHandThumb1 -26.253704 0.000000 33.147579
RightShoulder -6.895910 0.107439 -13.084081
RightArm 11.287655 30.856890 11.704649
RightForeArm -35.215092 -0.000000 5.179923
RightHand -5.937293 -0.000000 10.038195
RightHandThumb1 -24.326973 -0.000000 -32.862282
LeftUpLeg -9.311581 -22.813123 5.045884
LeftLeg -3.723985 -0.000000 0.000000
LeftFoot -14.252384 15.151728 -11.734223
LeftToeBase 28.954459 -0.000000 -0.000000
RightUpLeg 8.593579 -29.290621 -3.342307
RightLeg -4.629990 -0.000000 0.000000
RightFoot -31.983186 -36.880825 26.863789
RightToeBase 20.254338 -0.000000 -0.000000
160
root 17.323872 35.142904 -23.446785 -168.229256 -45.240046 -186.157689
Spine -26.038328 32.159902 -16.717978
Head 16.876159 15.055184 7.714900
LeftShoulder -15.896591 -30.228380 24.739065
LeftArm -4.878295 4.179934 -4.144403
LeftForeArm 11.803892 -0.000000 -3.469732
LeftHand -6.266208 -0.000000 -9.585997
LeftHandThumb1 -26.253704 0.000000 33.147579
RightShoulder -6.756990 0.241982 -13.131969
RightArm 11.288904 30.616114 11.655993
RightForeArm -35.187194 -0.000000 5.276277
RightHand -5.899027 0.000000 10.143958
RightHandThumb1 -24.326973 -0.000000 -32.862282
LeftUpLeg -9.445834 -23.042005 5.002377
LeftLeg -3.636541 -0.000000 0.000000
LeftFoot -14.188662 14.940023 -11.770462
LeftToeBase 29.083288 -0.000000 -0.000000
RightUpLeg 8.645045 -29.398301 -3.379987
RightLeg -4.585725 -0.000000 0.000000
RightFoot -32.173169 -37.123111 26.994856
RightToeBase 20.281065 -0.000000 -0.000000
161
root 17.318497 35.140389 -23.440560 -168.120383 -45.649397 -186.299543
Spine -26.105925 32.396069 -16.861527
Head 16.870453 15.155002 7.729187
LeftShoulder -15.896440 -30.131095 24.630507
LeftArm -4.964553 4.646421 -4.247689
LeftForeArm 11.836939 -0.000000 -3.429589
LeftHand -6.238277 -0.000000 -9.546160
LeftHandThumb1 -26.253704 0.000000 33.147579
RightShoulder -6.653145 0.321361 -13.193367
RightArm 11.377366 30.442663 11.667141
RightForeArm -35.277203 -0.000000 5.313772
RightHand -5.888581 -0.000000 10.029054
RightHandThumb1 -24.326973 -0.000000 -32.862282
LeftUpLeg -9.578304 -23.230973 4.968950
LeftLeg -3.551147 -0.000000 0.000000
LeftFoot -14.127136 14.738746 -11.757975
LeftToeBase 29.141331 -0.000000 -0.000000
RightUpLeg 8.687834 -29.487086 -3.402885
RightLeg -4.546051 -0.000000 0.000000
RightFoot -32.347173 -37.367425 27.103122
RightToeBase 20.298364 -0.000000 -0.000000
